<svg xmlns="http://www.w3.org/2000/svg" id="HIVE_LOGO__4" width="628.074" height="151" viewBox="0 0 628.074 151">
  <path id="Path_1" data-name="Path 1" d="M572.787,37.192V6.01H505.83V37.192h66.957Zm-48.332-4.548H520.04V23.825h-4.4v8.819h-4.415V10.569h4.415v8.819h4.4V10.569h4.415V32.644Zm8.808,0h-4.4V10.569h4.4V32.644ZM552.52,10.569,547,32.611v.033h-4.371l-.033-.033-5.513-22.042h4.415l3.328,13.256,3.295-13.256Zm14.865,22.075H555.471V10.569h11.914v4.4h-7.51v4.4h7.055v4.437h-7.055v4.4h7.51v4.426Z" transform="translate(55.286 0.657)" fill="#383838"></path>
  <path id="Path_2" data-name="Path 2" d="M111.64,119.327H94.279V82.576H55.631v36.751H38.393V30.705H55.631V66.336H94.279V30.705H111.64v88.622Zm38.4-44.305a75.022,75.022,0,1,0-75.022,75.022,75.023,75.023,0,0,0,75.022-75.022" fill="#a0d3df"></path>
  <path id="Path_3" data-name="Path 3" d="M490.755,63.458H407.5l.022-.3c1.154-17.538,17.039-35.686,41.61-35.686,23.384-.466,40.412,18.082,41.61,35.686l.011.3Zm4.315-37.627a65.346,65.346,0,0,0-92.882,1.409A68.512,68.512,0,0,0,383.53,74.662c0,32.957,24.626,67.046,65.837,67.046a62.113,62.113,0,0,0,35.42-10.738c10.782-7.188,19.191-17.66,24.981-31.149H485.574c-7.233,13.922-20.089,21.576-36.219,21.576-19.657,0-41.166-13.744-42.3-39.214l-.011-.3H513.839c2.041-21.8-4.448-41.177-18.769-56.053" transform="translate(41.919 0.781)" fill="#fd0"></path>
  <path id="Path_4" data-name="Path 4" d="M220.2,101.224a2.869,2.869,0,0,0,3.749-1.353l.277-.555c.044-.089.166-.355.166-.355.033-.078.055-.155.1-.288,1.143-3.017,1.032-5.558-.322-7.554-1.553-2.3-4.47-3.461-8.686-3.461-1.631,0-7.155.566-15.552,1.6l-.266.033c-7.432.754-12.213-.011-13.1-6.146-.754-5.236.233-8.653,20.311-11.936,22.607-3.827,26.357.954,28.154,3.239.233.3.455.566.666.821a28.356,28.356,0,0,1,4.781,8.863A26.053,26.053,0,0,1,242,91.007c.089,1.176-.089,7.088-.089,7.088-1.875,21.554-20.322,38.371-42.2,38.371-23.284,0-43.085-19.568-43.44-42.819V19.724c0-.078.577-7.543,7.743-7.543s7.377,7.477,7.377,7.543l.022,45.515a2.826,2.826,0,0,0,2.829,2.829h0a2.826,2.826,0,0,0,2.829-2.829V54.068c.2-1.231,1.531-7.388,8.309-7.133,8.164.333,11.936,3.383,13.955,11.248a44.589,44.589,0,0,1,1.109,8.408,47.422,47.422,0,0,0-10.339,3.15c-.654-4.1-2.6-6.634-4.9-7.344a3.17,3.17,0,0,0-3.494,1.009,2.19,2.19,0,0,0-.322,1.753,2.318,2.318,0,0,0,.965,1.431c1.109.654,1.841,2.052,2.152,4.182a15.318,15.318,0,0,1,.155,2.207c-3.161,2.762-4.382,6.367-3.716,10.982,1.841,12.735,14.432,11.47,19.18,10.993l.255-.033c5.1-.632,13.345-1.575,15.109-1.575,2.629,0,3.738.61,3.982.954.377.521.166,1.22-.244,2.119-.144.333-.3.666-.455,1a2.861,2.861,0,0,0,1.431,3.8Zm16.129-33.512c-2.917-2.141-7.055-3.306-12.635-3.561C223.537,54.8,222.473,48,217.858,43.1c-.222-.233-.51-.521-.843-.832,1.919-1.453,5.236-2.085,8.808-1.664h0a8.228,8.228,0,0,1,5.7,3.361c3.45,4.4,5.225,13.245,4.8,23.75M213.72,46.99c3.394,3.594,4.16,9.041,4.293,17.194a106.675,106.675,0,0,0-11.936,1.387,49.811,49.811,0,0,0-1.242-8.819c-1.353-5.325-3.627-9.152-6.933-11.681a9.461,9.461,0,0,1,6.4-2.474v-.41l.011.41c4.759.011,8.164,3.084,9.407,4.393m33.889,51.094c.144-1.564.144-5.214.144-5.214a31.207,31.207,0,0,0-1.941-10.7,39.027,39.027,0,0,0-4.238-8.542c.632-5.535,1.963-23.517-5.58-33.157a13.789,13.789,0,0,0-9.518-5.513c-5.924-.688-11.2.8-14.21,3.96a17.312,17.312,0,0,0-7.976-1.975,14.917,14.917,0,0,0-11.648,5.447,26.822,26.822,0,0,0-7.055-1.143,13.269,13.269,0,0,0-8.519,2.463V19.713c0-4.315-3.195-13.223-13.056-13.223-10.039,0-13.423,9.085-13.423,13.223V92.128c0,27.011,22.086,50,49.1,50.007a48.014,48.014,0,0,0,47.922-44.05Z" transform="translate(16.459 0.709)" fill="#383838"></path>
  <path id="Path_5" data-name="Path 5" d="M316.858,141.32l73.768-92.005H356.061V7.15H277.656V49.314H243.09Z" transform="translate(26.569 0.781)" fill="#f5c5c3"></path>
</svg>